<svg width="800" height="560" viewBox="0 0 800 560" xmlns="http://www.w3.org/2000/svg" role="img" aria-label="Тренажёр печати">
  <defs>
    <linearGradient id="type-bg" x1="0%" y1="0%" x2="100%" y2="100%">
      <stop offset="0%" stop-color="#0c0d18" />
      <stop offset="100%" stop-color="#1c1f34" />
    </linearGradient>
  </defs>
  <rect width="800" height="560" rx="44" fill="url(#type-bg)" />
  <g fill="none" stroke="#6f77c8" stroke-width="10" stroke-linecap="round" stroke-linejoin="round" opacity="0.45">
    <rect x="180" y="180" width="440" height="200" rx="22" />
  </g>
  <g fill="#7a85ff" opacity="0.8">
    <rect x="220" y="220" width="80" height="24" rx="12" />
    <rect x="320" y="220" width="80" height="24" rx="12" />
    <rect x="420" y="220" width="80" height="24" rx="12" />
    <rect x="520" y="220" width="80" height="24" rx="12" />
  </g>
  <g fill="#4c58ff" opacity="0.6">
    <rect x="220" y="260" width="120" height="24" rx="12" />
    <rect x="360" y="260" width="160" height="24" rx="12" />
    <rect x="540" y="260" width="60" height="24" rx="12" />
  </g>
  <g stroke="#9aa3ff" stroke-width="12" stroke-linecap="round">
    <path d="M240 320h280" />
  </g>
  <g fill="#6f77c8" opacity="0.75">
    <rect x="240" y="360" width="120" height="20" rx="10" />
    <rect x="380" y="360" width="160" height="20" rx="10" />
  </g>
</svg>
